<svg width="110" height="105" viewBox="0 0 110 105" fill="none" xmlns="http://www.w3.org/2000/svg">
<path fill-rule="evenodd" clip-rule="evenodd" d="M15 7.5V15H7.5H0V20V25H7.5H15V32.5V40H20H25V32.5V25H32.5H40V20V15H32.5H25V7.5V0H20H15V7.5ZM93.5 11.109C63.062 15.499 41.047 35.745 30.557 68.996C27.747 77.905 25.016 93.526 25.006 100.75L25 105H30C34.835 105 35 104.905 35 102.14C35 100.566 35.281 97.232 35.623 94.731L36.247 90.182L50.43 89.841C64.519 89.502 64.662 89.475 72.228 85.734C83.643 80.089 91.27 70.656 93.907 58.918C94.54 56.1 95.929 53.859 98.205 51.983C105.388 46.061 109.959 32.974 109.985 18.25L110 10L104.75 10.122C101.862 10.189 96.8 10.633 93.5 11.109ZM99.523 25.75C98.551 33.645 95.482 40.332 90.951 44.425C86.431 48.509 81.734 49.987 73.25 49.994L67 50V55.106V60.212L75 59.848C80.312 59.607 83 59.85 83 60.571C83 62.823 76.499 71.351 72.663 74.129C70.468 75.719 66.415 77.69 63.655 78.51C57.695 80.28 38 80.6 38 78.926C38 76.307 43.442 61.92 46.654 56.049C56.557 37.948 72.05 25.536 89 22.126C96.97 20.523 98.4 20.245 99.365 20.116C99.841 20.052 99.912 22.587 99.523 25.75Z" fill="white"/>
</svg>
